# xmcd
#
# Track frame offsets:
#	150
#	9463
#	24628
#	34933
#	50063
#	65021
#	75268
#	89779
#	103770
#	118290
#	130955
#	142508
#
# Disc length: 2023 seconds
#
# Revision: 1
# Processed by: cddbd v1.5.2PL0 Copyright (c) Steve Scherf et al.
# Submitted via: EZCDAudioConverter 7.1.8.1
#
DISCID=a307e50c
DTITLE=鄭少秋 and 張德蘭 - 娛樂寶典 原音重現系列～陸小鳳
DYEAR=2018
DGENRE=Contemporary Pop
TTITLE0=鄭少秋 - 陸小鳳
TTITLE1=鄭少秋 - 決戰前夕
TTITLE2=張德蘭 - 鮮花滿月樓 - 張德蘭主唱
TTITLE3=鄭少秋 - 悼薛冰
TTITLE4=張德蘭 - 願君心記取 - 張德蘭主唱
TTITLE5=張德蘭 - 落花淚影 - 張德蘭主唱
TTITLE6=鄭少秋 - 大報復 (主題曲)
TTITLE7=鄭少秋 - 悲歌訴心聲
TTITLE8=鄭少秋 - 文秋郎
TTITLE9=鄭少秋 - 彈劍江湖
TTITLE10=鄭少秋 - 初戀
TTITLE11=鄭少秋 - 陸小鳳 (主題曲音樂)
EXTD=
EXTT0=
EXTT1=
EXTT2=
EXTT3=
EXTT4=
EXTT5=
EXTT6=
EXTT7=
EXTT8=
EXTT9=
EXTT10=
EXTT11=
PLAYORDER=
